# xmcd CD database file
#
# Track frame offsets:
#	150
#	25500
#	47493
#	65854
#	82429
#	107225
#	117700
#	146424
#	168430
#	187636
#	202733
#	231983
#	251410
#	268435
#	290335
#
# Disc length: 4085 seconds
#
# Revision: 0
# Processed by: cddbd v1.5.2PL0 Copyright (c) Steve Scherf et al.
# Submitted via: CDex 1.51
#
DISCID=dd0ff30f
DTITLE=Swami Vishwananda - Love Beyond Words 2
DYEAR=2007
DGENRE=New Age
TTITLE0=Ambha Bhavani
TTITLE1=Jai Hari Krishna
TTITLE2=Hare Krishna Mahamantra
TTITLE3=Yadu Nanda
TTITLE4=Vittala Hari Vittala
TTITLE5=Radhe Radhe Radhe Govinda
TTITLE6=Shirman Narayana
TTITLE7=Jaya hanuman Balavir
TTITLE8=Narayana Narayana
TTITLE9=Heveinu Shalom Aleichem
TTITLE10=Gam Ganapataye Nama Namah
TTITLE11=Durge Durge Durge Jai Jai Ma
TTITLE12=Namah Parvati Pataye
TTITLE13=Babaji Babaji
TTITLE14=Jai Gurudeva Namo Namah
EXTD=YEAR: 2007
EXTT0=
EXTT1=
EXTT2=
EXTT3=
EXTT4=
EXTT5=
EXTT6=
EXTT7=
EXTT8=
EXTT9=
EXTT10=
EXTT11=
EXTT12=
EXTT13=
EXTT14=
PLAYORDER=
